<svg width="50" height="11" viewBox="0 0 50 11" fill="none" xmlns="http://www.w3.org/2000/svg">
<path opacity="0.11" d="M4.70792 10.4327C6.75575 10.4327 8.41585 8.76885 8.41585 6.71636C8.41585 4.66387 6.75575 3 4.70792 3C2.66009 3 1 4.66387 1 6.71636C1 8.76885 2.66009 10.4327 4.70792 10.4327Z" stroke="#622FCD" stroke-width="0.3" stroke-miterlimit="10"/>
<path d="M4.12887 2.19927C3.78535 1.60881 3.60315 0.938048 3.60062 0.254545C3.61331 0.191801 3.64417 0.134197 3.68934 0.0889272C3.73451 0.0436569 3.79198 0.012727 3.85458 0H5.88632C5.88632 0 6.24188 -1.51721e-08 6.19108 0.224C6.14502 0.902681 5.99068 1.56957 5.73394 2.19927H4.12887Z" fill="#300864"/>
<path d="M3.7327 3.49236C3.7327 3.49236 3.88508 2.71854 4.23047 2.74909H5.47999C5.47999 2.74909 5.84571 2.58618 6.00824 3.25818L7.02411 6.48582L7.2984 7.42254C7.40441 7.77099 7.40441 8.14319 7.2984 8.49163L5.57142 10.1105C5.51565 10.1798 5.44633 10.2368 5.36774 10.2781C5.28914 10.3195 5.20293 10.3442 5.11442 10.3509C5.0259 10.3576 4.93697 10.346 4.85308 10.317C4.7692 10.2879 4.69214 10.2419 4.62666 10.1818L2.7473 8.66472C2.56917 8.57318 2.43415 8.41505 2.37142 8.22452C2.30868 8.03399 2.32329 7.82637 2.41207 7.64654L3.7327 3.49236Z" fill="#300864"/>
<path opacity="0.33" d="M5.50031 7.29019C5.673 7.49383 5.85586 7.71783 6.02856 7.94183C6.20125 8.16583 6.4349 8.48146 6.61776 8.74619C6.64248 8.82182 6.64198 8.90345 6.61632 8.97876C6.59066 9.05407 6.54125 9.11897 6.47554 9.16365C6.42805 9.17393 6.37896 9.17435 6.3313 9.16487C6.28364 9.1554 6.23843 9.13624 6.19844 9.10857C6.15846 9.0809 6.12456 9.04531 6.09884 9.004C6.07311 8.96269 6.05611 8.91653 6.04887 8.86837L5.94729 8.61383C5.77115 8.1823 5.62187 7.74024 5.50031 7.29019V7.29019Z" fill="white"/>
<path d="M13.835 1.797H15.746L18.56 9H16.901L16.3865 7.6245H13.1105L12.596 9H11.021L13.835 1.797ZM15.9035 6.354L15.221 4.527C15.137 4.303 14.9865 3.8305 14.7695 3.1095H14.717C14.5 3.8305 14.3495 4.303 14.2655 4.527L13.583 6.354H15.9035ZM17.6525 3.477H19.154L20.015 5.85C20.113 6.116 20.267 6.669 20.477 7.509H20.5295C20.7255 6.718 20.8795 6.165 20.9915 5.85L21.842 3.477H23.3015L21.233 9H19.7105L17.6525 3.477ZM25.713 9.126C24.943 9.126 24.3375 8.9685 23.8965 8.6535C23.4625 8.3315 23.2455 7.9045 23.2455 7.3725L23.256 7.2465H24.6525V7.32C24.6595 7.565 24.768 7.7435 24.978 7.8555C25.195 7.9605 25.4575 8.013 25.7655 8.013C26.0525 8.013 26.2975 7.9745 26.5005 7.8975C26.7035 7.8205 26.805 7.6945 26.805 7.5195C26.805 7.3235 26.7 7.1765 26.49 7.0785C26.287 6.9805 25.965 6.8825 25.524 6.7845C25.069 6.6795 24.698 6.5745 24.411 6.4695C24.124 6.3575 23.8755 6.186 23.6655 5.955C23.4555 5.724 23.3505 5.416 23.3505 5.031C23.3505 4.492 23.5745 4.079 24.0225 3.792C24.4775 3.498 25.062 3.351 25.776 3.351C26.441 3.351 26.9905 3.4875 27.4245 3.7605C27.8585 4.0265 28.0755 4.3905 28.0755 4.8525L28.065 5.094H26.6685V5.031C26.6685 4.849 26.581 4.709 26.406 4.611C26.238 4.513 26.0105 4.464 25.7235 4.464C25.4365 4.464 25.209 4.5025 25.041 4.5795C24.873 4.6565 24.789 4.765 24.789 4.905C24.789 5.08 24.8835 5.2095 25.0725 5.2935C25.2685 5.3775 25.58 5.4615 26.007 5.5455C26.476 5.6505 26.8575 5.7555 27.1515 5.8605C27.4455 5.9655 27.701 6.137 27.918 6.375C28.135 6.613 28.2435 6.935 28.2435 7.341C28.2435 8.531 27.4 9.126 25.713 9.126Z" fill="#300864"/>
</svg>
